<svg width="173" height="345" viewBox="0 0 173 345" fill="none" xmlns="http://www.w3.org/2000/svg">
<g filter="url(#filter0_i_385_34922)">
<path fillRule="evenodd" clipRule="evenodd" d="M31.5177 1.29416C11.3851 1.29416 2.15234 10.8432 2.15234 30.6709V314.602C2.15234 334.429 11.3851 343.978 31.5177 343.978H141.139C160.616 343.978 170.505 333.756 170.505 314.602V30.6709C170.505 10.8432 161.272 1.29416 141.139 1.29416H31.5177Z" fill="#879A94"/>
</g>
<path d="M31.5177 0.896049C21.3954 0.896049 13.9313 3.29631 9.0026 8.26681C4.07457 13.2367 1.75423 20.7027 1.75423 30.6709V314.602C1.75423 324.57 4.07457 332.036 9.0026 337.006C13.9313 341.976 21.3954 344.377 31.5177 344.377H141.139C150.944 344.377 158.403 341.803 163.408 336.753C168.413 331.704 170.903 324.243 170.903 314.602V30.6709C170.903 20.7027 168.583 13.2367 163.654 8.26681C158.726 3.29631 151.262 0.896049 141.139 0.896049H31.5177Z" stroke="#62726E" stroke-width="0.796219"/>
<path fillRule="evenodd" clipRule="evenodd" d="M31.6492 3.15353C12.5913 3.15353 4.01074 11.8001 4.01074 30.7808V314.492C4.01074 333.472 12.5913 342.119 31.6492 342.119H141.273C159.67 342.119 168.911 332.804 168.911 314.492V30.7808C168.911 11.8001 160.331 3.15353 141.273 3.15353H31.6492Z" fill="url(#paint0_linear_385_34922)"/>
<g filter="url(#filter1_dd_385_34922)">
<path fillRule="evenodd" clipRule="evenodd" d="M31.5576 4.74741H141.363C159.47 4.74741 167.317 12.5875 167.317 30.6275V314.114C167.317 331.488 158.806 339.994 141.363 339.994H31.5576C13.4509 339.994 5.60352 332.154 5.60352 314.114V30.6275C5.60352 12.5875 13.4509 4.74741 31.5576 4.74741Z" fill="url(#paint1_linear_385_34922)"/>
</g>
<path d="M31.5538 7.13828C14.922 7.13828 8.25977 13.7892 8.25977 30.3824V314.093C8.25977 330.686 14.922 337.337 31.5538 337.337H141.369C157.335 337.337 164.663 330.022 164.663 314.093V30.3824C164.663 13.7892 158.001 7.13828 141.369 7.13828H31.5538Z" fill="black"/>
<g filter="url(#filter2_i_385_34922)">
<path fillRule="evenodd" clipRule="evenodd" d="M167.053 30.6439C167.053 18.2136 163.334 10.627 155.108 7.11176C155.043 7.62809 155.658 8.27864 156.593 9.26895C159.157 11.9825 164.131 17.2471 164.131 29.2916V315.398C164.131 327.344 159.482 332.408 156.937 335.18C156.161 336.024 155.582 336.656 155.388 337.204C163.207 333.435 167.053 325.761 167.053 314.071V30.6439ZM5.86914 314.005C5.86914 326.448 9.58809 334.042 17.8137 337.561C17.879 337.044 17.2643 336.393 16.3287 335.402C13.7648 332.685 8.79069 327.416 8.79069 315.359V28.9663C8.79069 17.0085 13.4403 11.9394 15.9852 9.16486C16.7604 8.31972 17.3403 7.68748 17.534 7.13831C9.71498 10.9114 5.86914 18.5931 5.86914 30.2946V314.005Z" fill="white" fill-opacity="0.78"/>
</g>
<rect opacity="0.45" x="1.37695" y="308.959" width="2.50364" height="2.50364" fill="black"/>
<rect opacity="0.45" x="1.37695" y="33.5583" width="2.50364" height="2.50364" fill="black"/>
<rect opacity="0.45" x="168.62" y="308.959" width="2.50364" height="2.50364" fill="black"/>
<rect opacity="0.45" x="168.62" y="33.5583" width="2.50364" height="2.50364" fill="black"/>
<path opacity="0.447803" fillRule="evenodd" clipRule="evenodd" d="M34.8135 341.854H37.2033V344.51H34.8135V341.854Z" fill="black"/>
<path opacity="0.447803" fillRule="evenodd" clipRule="evenodd" d="M135.449 0.510254H137.839V3.16672H135.449V0.510254Z" fill="black"/>
<g filter="url(#filter3_iii_385_34922)">
<path fillRule="evenodd" clipRule="evenodd" d="M0.956864 89.9201C0.682904 89.9913 0.354385 90.1735 0.178969 90.4323C0.142837 90.4856 0.114258 90.6542 0.114258 90.703C0.114258 93.1499 0.114258 100.603 0.114258 113.062C0.114258 113.114 0.154485 113.377 0.179115 113.441C0.321067 113.808 0.567711 113.897 0.956864 114.109H1.43835C1.43835 113.44 1.44646 90.5747 1.43835 89.9201H0.956864Z" fill="#89A098"/>
</g>
<g filter="url(#filter4_iii_385_34922)">
<path fillRule="evenodd" clipRule="evenodd" d="M0.956864 121.572C0.682904 121.643 0.354385 121.825 0.178969 122.084C0.142837 122.137 0.114258 122.306 0.114258 122.355C0.114258 124.802 0.114258 132.255 0.114258 144.714C0.114258 144.766 0.154485 145.029 0.179115 145.092C0.321067 145.46 0.567711 145.549 0.956864 145.761H1.43835C1.43835 145.092 1.44646 122.227 1.43835 121.572H0.956864Z" fill="#89A098"/>
</g>
<g filter="url(#filter5_iii_385_34922)">
<path fillRule="evenodd" clipRule="evenodd" d="M0.956864 65.7308C0.491505 65.7308 0.114258 66.1421 0.114258 66.6495V77.9361C0.114258 78.4435 0.491505 78.8548 0.956864 78.8548H1.43835C1.43835 78.1645 1.44646 66.4056 1.43835 65.7308H0.956864Z" fill="#89A098"/>
</g>
<g filter="url(#filter6_iii_385_34922)">
<path fillRule="evenodd" clipRule="evenodd" d="M172.043 102.915C172.508 102.915 172.886 104.145 172.886 105.662V139.412C172.886 140.929 172.508 142.159 172.043 142.159H171.562C171.562 140.095 171.554 104.933 171.562 102.915H172.043Z" fill="#89A098"/>
</g>
<path fillRule="evenodd" clipRule="evenodd" d="M104.325 16.6974C105.645 16.6974 106.715 15.627 106.715 14.3066C106.715 12.9862 105.645 11.9158 104.325 11.9158C103.006 11.9158 101.936 12.9862 101.936 14.3066C101.936 15.627 103.006 16.6974 104.325 16.6974Z" fill="url(#paint2_linear_385_34922)"/>
<g filter="url(#filter7_i_385_34922)">
<path fillRule="evenodd" clipRule="evenodd" d="M104.307 15.295C104.987 15.295 105.538 14.7691 105.538 14.1202C105.538 13.4714 104.987 12.9455 104.307 12.9455C103.628 12.9455 103.077 13.4714 103.077 14.1202C103.077 14.7691 103.628 15.295 104.307 15.295Z" fill="url(#paint3_radial_385_34922)"/>
</g>
<path d="M105.412 14.1202C105.412 14.694 104.923 15.169 104.307 15.169C103.692 15.169 103.203 14.694 103.203 14.1202C103.203 13.5465 103.692 13.0715 104.307 13.0715C104.923 13.0715 105.412 13.5465 105.412 14.1202Z" stroke="black" stroke-width="0.252088"/>
<g filter="url(#filter8_diiii_385_34922)">
<path fillRule="evenodd" clipRule="evenodd" d="M104.306 15.1831C104.862 15.1831 105.313 14.7573 105.313 14.2321C105.313 13.7069 104.862 13.2811 104.306 13.2811C103.75 13.2811 103.3 13.7069 103.3 14.2321C103.3 14.7573 103.75 15.1831 104.306 15.1831Z" fill="url(#paint4_radial_385_34922)"/>
</g>
<path opacity="0.772913" fillRule="evenodd" clipRule="evenodd" d="M104.307 14.3999C104.554 14.3999 104.754 14.1994 104.754 13.9522C104.754 13.7049 104.554 13.5045 104.307 13.5045C104.06 13.5045 103.859 13.7049 103.859 13.9522C103.859 14.1994 104.06 14.3999 104.307 14.3999Z" fill="url(#paint5_radial_385_34922)"/>
<path opacity="0.283465" fillRule="evenodd" clipRule="evenodd" d="M104.865 15.4069C105.112 15.4069 105.313 15.2064 105.313 14.9592C105.313 14.7119 105.112 14.5115 104.865 14.5115C104.618 14.5115 104.418 14.7119 104.418 14.9592C104.418 15.2064 104.618 15.4069 104.865 15.4069Z" fill="url(#paint6_radial_385_34922)"/>
<g filter="url(#filter9_di_385_34922)">
<path fillRule="evenodd" clipRule="evenodd" d="M104.307 13.4457C104.552 13.4457 104.784 13.5552 104.751 13.4751C104.718 13.3949 104.552 13.2807 104.307 13.2807C104.062 13.2807 103.903 13.3949 103.864 13.4751C103.824 13.5552 104.062 13.4457 104.307 13.4457Z" fill="#68B9A3" fill-opacity="0.16999"/>
</g>
<g opacity="0.755422" filter="url(#filter10_di_385_34922)">
<path fillRule="evenodd" clipRule="evenodd" d="M104.306 14.7439C104.492 14.7439 104.642 14.7043 104.642 14.7949C104.642 14.8856 104.492 14.959 104.306 14.959C104.121 14.959 103.971 14.8856 103.971 14.7949C103.971 14.7043 104.121 14.7439 104.306 14.7439Z" fill="#52735A" fill-opacity="0.20419"/>
</g>
<g filter="url(#filter11_d_385_34922)">
<path fillRule="evenodd" clipRule="evenodd" d="M104.307 14.5115C104.554 14.5115 104.754 14.3361 104.754 14.1198C104.754 13.9035 104.554 13.7281 104.307 13.7281C104.06 13.7281 103.859 13.9035 103.859 14.1198C103.859 14.3361 104.06 14.5115 104.307 14.5115Z" fill="white" fill-opacity="0.570171" style="mix-blend-mode:overlay"/>
</g>
<g filter="url(#filter12_d_385_34922)">
<path fillRule="evenodd" clipRule="evenodd" d="M104.362 14.5115C104.578 14.5115 104.754 14.3361 104.754 14.1198C104.754 13.9035 104.578 13.7281 104.362 13.7281C104.146 13.7281 103.971 13.9035 103.971 14.1198C103.971 14.3361 104.146 14.5115 104.362 14.5115Z" fill="black" fill-opacity="0.570171" style="mix-blend-mode:overlay"/>
</g>
<g filter="url(#filter13_ii_385_34922)">
<path fillRule="evenodd" clipRule="evenodd" d="M104.306 14.5117C104.492 14.5117 104.642 14.3613 104.642 14.1759C104.642 13.9905 104.492 13.8402 104.306 13.8402C104.121 13.8402 103.971 13.9905 103.971 14.1759C103.971 14.3613 104.121 14.5117 104.306 14.5117Z" fill="url(#paint7_radial_385_34922)"/>
</g>
<g opacity="0.391966" filter="url(#filter14_f_385_34922)">
<path fillRule="evenodd" clipRule="evenodd" d="M104.307 14.332C104.43 14.332 104.53 14.2328 104.53 14.332C104.53 14.4311 104.43 14.5115 104.307 14.5115C104.183 14.5115 104.083 14.4311 104.083 14.332C104.083 14.2328 104.183 14.332 104.307 14.332Z" fill="#A2B9A7"/>
</g>
<g opacity="0.755422" filter="url(#filter15_di_385_34922)">
<path fillRule="evenodd" clipRule="evenodd" d="M104.306 14.2919C104.368 14.2919 104.418 14.2722 104.418 14.3175C104.418 14.3628 104.368 14.3996 104.306 14.3996C104.244 14.3996 104.194 14.3628 104.194 14.3175C104.194 14.2722 104.244 14.2919 104.306 14.2919Z" fill="#527073"/>
</g>
<g opacity="0.980352" filter="url(#filter16_di_385_34922)">
<path fillRule="evenodd" clipRule="evenodd" d="M104.251 14.0402C104.343 14.0402 104.43 14.102 104.417 14.0255C104.405 13.9491 104.343 13.8402 104.251 13.8402C104.159 13.8402 104.099 13.9491 104.085 14.0255C104.07 14.102 104.159 14.0402 104.251 14.0402Z" fill="#E4D3F2" fill-opacity="0.526183"/>
</g>
<g opacity="0.657241" filter="url(#filter17_f_385_34922)">
<path fillRule="evenodd" clipRule="evenodd" d="M104.25 14.847C104.405 14.847 104.53 14.7469 104.53 14.6233C104.53 14.4997 104.405 14.3996 104.25 14.3996C104.096 14.3996 103.971 14.4997 103.971 14.6233C103.971 14.7469 104.096 14.847 104.25 14.847Z" fill="#76DB82"/>
</g>
<path opacity="0.170243" fillRule="evenodd" clipRule="evenodd" d="M103.692 14.5124C104.093 14.5124 104.419 14.1868 104.419 13.7851C104.419 13.3835 104.093 13.0579 103.692 13.0579C103.29 13.0579 102.965 13.3835 102.965 13.7851C102.965 14.1868 103.29 14.5124 103.692 14.5124Z" fill="url(#paint8_radial_385_34922)"/>
<g opacity="0.801364">
<g filter="url(#filter18_d_385_34922)">
<rect x="75.4844" y="13.0284" width="21.0306" height="2.50364" rx="1.25182" fill="#151414"/>
</g>
<mask id="mask0_385_34922" style="mask-type:luminance" maskUnits="userSpaceOnUse" x="75" y="13" width="22" height="3">
<rect x="75.4844" y="13.0284" width="21.0306" height="2.50364" rx="1.25182" fill="white"/>
</mask>
<g mask="url(#mask0_385_34922)">
<path opacity="0.05" d="M63.0193 10.8901L70.5317 18.4054M64.4105 10.8901L71.9229 18.4054M65.8017 10.8901L73.314 18.4054M67.1929 10.8901L74.7052 18.4054M68.584 10.8901L76.0964 18.4054M77.4875 18.4054L69.9752 10.8901L62.4629 18.4054M78.8787 18.4054L71.3664 10.8901L63.8541 18.4054M80.2699 18.4054L72.7576 10.8901L65.2452 18.4054M81.661 18.4054L74.1487 10.8901L66.6364 18.4054M83.0522 18.4054L75.5399 10.8901L68.0276 18.4054M84.4434 18.4054L76.9311 10.8901L69.4187 18.4054M85.8345 18.4054L78.3222 10.8901L70.8099 18.4054M87.2257 18.4054L79.7134 10.8901L72.2011 18.4054M88.6169 18.4054L81.1046 10.8901L73.5922 18.4054M90.0081 18.4054L82.4957 10.8901L74.9834 18.4054M91.3992 18.4054L83.8869 10.8901L76.3746 18.4054M92.7904 18.4054L85.2781 10.8901L77.7658 18.4054M94.1816 18.4054L86.6692 10.8901L79.1569 18.4054M95.5727 18.4054L88.0604 10.8901L80.5481 18.4054M96.9639 18.4054L89.4516 10.8901L81.9393 18.4054M98.3551 18.4054L90.8428 10.8901L83.3304 18.4054M99.7463 18.4054L92.2339 10.8901L84.7216 18.4054M101.137 18.4054L93.6251 10.8901L86.1128 18.4054M100.581 10.8901L93.0686 18.4054M99.1898 10.8901L91.6775 18.4054M97.7986 10.8901L90.2863 18.4054M96.4074 10.8901L88.8951 18.4054M95.0163 10.8901L87.504 18.4054" stroke="white" stroke-width="0.265406"/>
</g>
</g>
<path fillRule="evenodd" clipRule="evenodd" d="M128.082 13.9748C128.082 17.7955 125.269 22.467 118.797 22.467H54.3355C47.8636 22.467 45.0509 17.7955 45.0509 14.1075C45.0509 12.2691 45.0509 10.5249 42.0003 10.5249H29.1344C18.3822 10.5249 11.8916 17.0181 11.8916 27.7747V316.245C11.8916 327.001 18.3822 333.494 29.1344 333.494H143.866C154.618 333.494 161.108 327.001 161.108 316.245V27.7747C161.108 17.0181 154.618 10.5249 143.866 10.5249H131.132C128.082 10.5249 128.082 12.2691 128.082 13.9748Z" fill="#D7ECFF"/>
<defs>
<filter id="filter0_i_385_34922" x="1.35645" y="0.497925" width="169.944" height="344.277" filterUnits="userSpaceOnUse" color-interpolation-filters="sRGB">
<feFlood flood-opacity="0" result="BackgroundImageFix"/>
<feBlend mode="normal" in="SourceGraphic" in2="BackgroundImageFix" result="shape"/>
<feColorMatrix in="SourceAlpha" type="matrix" values="0 0 0 0 0 0 0 0 0 0 0 0 0 0 0 0 0 0 127 0" result="hardAlpha"/>
<feOffset/>
<feGaussianBlur stdDeviation="0.5142"/>
<feComposite in2="hardAlpha" operator="arithmetic" k2="-1" k3="1"/>
<feColorMatrix type="matrix" values="0 0 0 0 0 0 0 0 0 0 0 0 0 0 0 0 0 0 0.5 0"/>
<feBlend mode="normal" in2="shape" result="effect1_innerShadow_385_34922"/>
</filter>
<filter id="filter1_dd_385_34922" x="5.60352" y="4.23321" width="161.714" height="336.275" filterUnits="userSpaceOnUse" color-interpolation-filters="sRGB">
<feFlood flood-opacity="0" result="BackgroundImageFix"/>
<feColorMatrix in="SourceAlpha" type="matrix" values="0 0 0 0 0 0 0 0 0 0 0 0 0 0 0 0 0 0 127 0" result="hardAlpha"/>
<feOffset dy="0.5142"/>
<feColorMatrix type="matrix" values="0 0 0 0 0 0 0 0 0 0 0 0 0 0 0 0 0 0 0.5 0"/>
<feBlend mode="normal" in2="BackgroundImageFix" result="effect1_dropShadow_385_34922"/>
<feColorMatrix in="SourceAlpha" type="matrix" values="0 0 0 0 0 0 0 0 0 0 0 0 0 0 0 0 0 0 127 0" result="hardAlpha"/>
<feOffset dy="-0.5142"/>
<feColorMatrix type="matrix" values="0 0 0 0 0 0 0 0 0 0 0 0 0 0 0 0 0 0 0.5 0"/>
<feBlend mode="normal" in2="effect1_dropShadow_385_34922" result="effect2_dropShadow_385_34922"/>
<feBlend mode="normal" in="SourceGraphic" in2="effect2_dropShadow_385_34922" result="shape"/>
</filter>
<filter id="filter2_i_385_34922" x="5.86914" y="7.11176" width="162.726" height="330.449" filterUnits="userSpaceOnUse" color-interpolation-filters="sRGB">
<feFlood flood-opacity="0" result="BackgroundImageFix"/>
<feBlend mode="normal" in="SourceGraphic" in2="BackgroundImageFix" result="shape"/>
<feColorMatrix in="SourceAlpha" type="matrix" values="0 0 0 0 0 0 0 0 0 0 0 0 0 0 0 0 0 0 127 0" result="hardAlpha"/>
<feOffset dx="1.5426"/>
<feGaussianBlur stdDeviation="1.09268"/>
<feComposite in2="hardAlpha" operator="arithmetic" k2="-1" k3="1"/>
<feColorMatrix type="matrix" values="0 0 0 0 0 0 0 0 0 0 0 0 0 0 0 0 0 0 0.6 0"/>
<feBlend mode="normal" in2="shape" result="effect1_innerShadow_385_34922"/>
</filter>
<filter id="filter3_iii_385_34922" x="0.114258" y="89.4059" width="1.32812" height="25.2177" filterUnits="userSpaceOnUse" color-interpolation-filters="sRGB">
<feFlood flood-opacity="0" result="BackgroundImageFix"/>
<feBlend mode="normal" in="SourceGraphic" in2="BackgroundImageFix" result="shape"/>
<feColorMatrix in="SourceAlpha" type="matrix" values="0 0 0 0 0 0 0 0 0 0 0 0 0 0 0 0 0 0 127 0" result="hardAlpha"/>
<feOffset dx="0.5142"/>
<feComposite in2="hardAlpha" operator="arithmetic" k2="-1" k3="1"/>
<feColorMatrix type="matrix" values="0 0 0 0 1 0 0 0 0 1 0 0 0 0 1 0 0 0 0.644843 0"/>
<feBlend mode="normal" in2="shape" result="effect1_innerShadow_385_34922"/>
<feColorMatrix in="SourceAlpha" type="matrix" values="0 0 0 0 0 0 0 0 0 0 0 0 0 0 0 0 0 0 127 0" result="hardAlpha"/>
<feOffset dy="1.0284"/>
<feGaussianBlur stdDeviation="0.2571"/>
<feComposite in2="hardAlpha" operator="arithmetic" k2="-1" k3="1"/>
<feColorMatrix type="matrix" values="0 0 0 0 0.384314 0 0 0 0 0.388235 0 0 0 0 0.388235 0 0 0 1 0"/>
<feBlend mode="normal" in2="effect1_innerShadow_385_34922" result="effect2_innerShadow_385_34922"/>
<feColorMatrix in="SourceAlpha" type="matrix" values="0 0 0 0 0 0 0 0 0 0 0 0 0 0 0 0 0 0 127 0" result="hardAlpha"/>
<feOffset dy="-1.0284"/>
<feGaussianBlur stdDeviation="0.2571"/>
<feComposite in2="hardAlpha" operator="arithmetic" k2="-1" k3="1"/>
<feColorMatrix type="matrix" values="0 0 0 0 0.384314 0 0 0 0 0.388235 0 0 0 0 0.388235 0 0 0 1 0"/>
<feBlend mode="normal" in2="effect2_innerShadow_385_34922" result="effect3_innerShadow_385_34922"/>
</filter>
<filter id="filter4_iii_385_34922" x="0.114258" y="121.058" width="1.32812" height="25.2177" filterUnits="userSpaceOnUse" color-interpolation-filters="sRGB">
<feFlood flood-opacity="0" result="BackgroundImageFix"/>
<feBlend mode="normal" in="SourceGraphic" in2="BackgroundImageFix" result="shape"/>
<feColorMatrix in="SourceAlpha" type="matrix" values="0 0 0 0 0 0 0 0 0 0 0 0 0 0 0 0 0 0 127 0" result="hardAlpha"/>
<feOffset dx="0.5142"/>
<feComposite in2="hardAlpha" operator="arithmetic" k2="-1" k3="1"/>
<feColorMatrix type="matrix" values="0 0 0 0 1 0 0 0 0 1 0 0 0 0 1 0 0 0 0.644843 0"/>
<feBlend mode="normal" in2="shape" result="effect1_innerShadow_385_34922"/>
<feColorMatrix in="SourceAlpha" type="matrix" values="0 0 0 0 0 0 0 0 0 0 0 0 0 0 0 0 0 0 127 0" result="hardAlpha"/>
<feOffset dy="1.0284"/>
<feGaussianBlur stdDeviation="0.2571"/>
<feComposite in2="hardAlpha" operator="arithmetic" k2="-1" k3="1"/>
<feColorMatrix type="matrix" values="0 0 0 0 0.384314 0 0 0 0 0.388235 0 0 0 0 0.388235 0 0 0 1 0"/>
<feBlend mode="normal" in2="effect1_innerShadow_385_34922" result="effect2_innerShadow_385_34922"/>
<feColorMatrix in="SourceAlpha" type="matrix" values="0 0 0 0 0 0 0 0 0 0 0 0 0 0 0 0 0 0 127 0" result="hardAlpha"/>
<feOffset dy="-1.0284"/>
<feGaussianBlur stdDeviation="0.2571"/>
<feComposite in2="hardAlpha" operator="arithmetic" k2="-1" k3="1"/>
<feColorMatrix type="matrix" values="0 0 0 0 0.384314 0 0 0 0 0.388235 0 0 0 0 0.388235 0 0 0 1 0"/>
<feBlend mode="normal" in2="effect2_innerShadow_385_34922" result="effect3_innerShadow_385_34922"/>
</filter>
<filter id="filter5_iii_385_34922" x="0.114258" y="65.2166" width="1.32812" height="14.1524" filterUnits="userSpaceOnUse" color-interpolation-filters="sRGB">
<feFlood flood-opacity="0" result="BackgroundImageFix"/>
<feBlend mode="normal" in="SourceGraphic" in2="BackgroundImageFix" result="shape"/>
<feColorMatrix in="SourceAlpha" type="matrix" values="0 0 0 0 0 0 0 0 0 0 0 0 0 0 0 0 0 0 127 0" result="hardAlpha"/>
<feOffset dx="0.5142"/>
<feComposite in2="hardAlpha" operator="arithmetic" k2="-1" k3="1"/>
<feColorMatrix type="matrix" values="0 0 0 0 1 0 0 0 0 1 0 0 0 0 1 0 0 0 0.644843 0"/>
<feBlend mode="normal" in2="shape" result="effect1_innerShadow_385_34922"/>
<feColorMatrix in="SourceAlpha" type="matrix" values="0 0 0 0 0 0 0 0 0 0 0 0 0 0 0 0 0 0 127 0" result="hardAlpha"/>
<feOffset dy="1.0284"/>
<feGaussianBlur stdDeviation="0.2571"/>
<feComposite in2="hardAlpha" operator="arithmetic" k2="-1" k3="1"/>
<feColorMatrix type="matrix" values="0 0 0 0 0.384314 0 0 0 0 0.388235 0 0 0 0 0.388235 0 0 0 1 0"/>
<feBlend mode="normal" in2="effect1_innerShadow_385_34922" result="effect2_innerShadow_385_34922"/>
<feColorMatrix in="SourceAlpha" type="matrix" values="0 0 0 0 0 0 0 0 0 0 0 0 0 0 0 0 0 0 127 0" result="hardAlpha"/>
<feOffset dy="-1.0284"/>
<feGaussianBlur stdDeviation="0.2571"/>
<feComposite in2="hardAlpha" operator="arithmetic" k2="-1" k3="1"/>
<feColorMatrix type="matrix" values="0 0 0 0 0.384314 0 0 0 0 0.388235 0 0 0 0 0.388235 0 0 0 1 0"/>
<feBlend mode="normal" in2="effect2_innerShadow_385_34922" result="effect3_innerShadow_385_34922"/>
</filter>
<filter id="filter6_iii_385_34922" x="171.558" y="102.401" width="1.32812" height="40.2717" filterUnits="userSpaceOnUse" color-interpolation-filters="sRGB">
<feFlood flood-opacity="0" result="BackgroundImageFix"/>
<feBlend mode="normal" in="SourceGraphic" in2="BackgroundImageFix" result="shape"/>
<feColorMatrix in="SourceAlpha" type="matrix" values="0 0 0 0 0 0 0 0 0 0 0 0 0 0 0 0 0 0 127 0" result="hardAlpha"/>
<feOffset dx="0.5142"/>
<feComposite in2="hardAlpha" operator="arithmetic" k2="-1" k3="1"/>
<feColorMatrix type="matrix" values="0 0 0 0 1 0 0 0 0 1 0 0 0 0 1 0 0 0 0.644843 0"/>
<feBlend mode="normal" in2="shape" result="effect1_innerShadow_385_34922"/>
<feColorMatrix in="SourceAlpha" type="matrix" values="0 0 0 0 0 0 0 0 0 0 0 0 0 0 0 0 0 0 127 0" result="hardAlpha"/>
<feOffset dy="1.0284"/>
<feGaussianBlur stdDeviation="0.2571"/>
<feComposite in2="hardAlpha" operator="arithmetic" k2="-1" k3="1"/>
<feColorMatrix type="matrix" values="0 0 0 0 0.384314 0 0 0 0 0.388235 0 0 0 0 0.388235 0 0 0 1 0"/>
<feBlend mode="normal" in2="effect1_innerShadow_385_34922" result="effect2_innerShadow_385_34922"/>
<feColorMatrix in="SourceAlpha" type="matrix" values="0 0 0 0 0 0 0 0 0 0 0 0 0 0 0 0 0 0 127 0" result="hardAlpha"/>
<feOffset dy="-1.0284"/>
<feGaussianBlur stdDeviation="0.2571"/>
<feComposite in2="hardAlpha" operator="arithmetic" k2="-1" k3="1"/>
<feColorMatrix type="matrix" values="0 0 0 0 0.384314 0 0 0 0 0.388235 0 0 0 0 0.388235 0 0 0 1 0"/>
<feBlend mode="normal" in2="effect2_innerShadow_385_34922" result="effect3_innerShadow_385_34922"/>
</filter>
<filter id="filter7_i_385_34922" x="103.077" y="12.9455" width="2.46094" height="3.12085" filterUnits="userSpaceOnUse" color-interpolation-filters="sRGB">
<feFlood flood-opacity="0" result="BackgroundImageFix"/>
<feBlend mode="normal" in="SourceGraphic" in2="BackgroundImageFix" result="shape"/>
<feColorMatrix in="SourceAlpha" type="matrix" values="0 0 0 0 0 0 0 0 0 0 0 0 0 0 0 0 0 0 127 0" result="hardAlpha"/>
<feOffset dy="0.89985"/>
<feGaussianBlur stdDeviation="0.38565"/>
<feComposite in2="hardAlpha" operator="arithmetic" k2="-1" k3="1"/>
<feColorMatrix type="matrix" values="0 0 0 0 0 0 0 0 0 0 0 0 0 0 0 0 0 0 0.792969 0"/>
<feBlend mode="normal" in2="shape" result="effect1_innerShadow_385_34922"/>
</filter>
<filter id="filter8_diiii_385_34922" x="102.271" y="12.7669" width="4.0695" height="3.95884" filterUnits="userSpaceOnUse" color-interpolation-filters="sRGB">
<feFlood flood-opacity="0" result="BackgroundImageFix"/>
<feColorMatrix in="SourceAlpha" type="matrix" values="0 0 0 0 0 0 0 0 0 0 0 0 0 0 0 0 0 0 127 0" result="hardAlpha"/>
<feOffset dy="0.5142"/>
<feGaussianBlur stdDeviation="0.5142"/>
<feColorMatrix type="matrix" values="0 0 0 0 0 0 0 0 0 0 0 0 0 0 0 0 0 0 0.558707 0"/>
<feBlend mode="normal" in2="BackgroundImageFix" result="effect1_dropShadow_385_34922"/>
<feBlend mode="normal" in="SourceGraphic" in2="effect1_dropShadow_385_34922" result="shape"/>
<feColorMatrix in="SourceAlpha" type="matrix" values="0 0 0 0 0 0 0 0 0 0 0 0 0 0 0 0 0 0 127 0" result="hardAlpha"/>
<feOffset dy="0.7713"/>
<feGaussianBlur stdDeviation="0.89985"/>
<feComposite in2="hardAlpha" operator="arithmetic" k2="-1" k3="1"/>
<feColorMatrix type="matrix" values="0 0 0 0 0 0 0 0 0 0 0 0 0 0 0 0 0 0 0.5 0"/>
<feBlend mode="normal" in2="shape" result="effect2_innerShadow_385_34922"/>
<feColorMatrix in="SourceAlpha" type="matrix" values="0 0 0 0 0 0 0 0 0 0 0 0 0 0 0 0 0 0 127 0" result="hardAlpha"/>
<feOffset/>
<feGaussianBlur stdDeviation="0.38565"/>
<feComposite in2="hardAlpha" operator="arithmetic" k2="-1" k3="1"/>
<feColorMatrix type="matrix" values="0 0 0 0 0.159339 0 0 0 0 0.154934 0 0 0 0 0.535213 0 0 0 0.68266 0"/>
<feBlend mode="normal" in2="effect2_innerShadow_385_34922" result="effect3_innerShadow_385_34922"/>
<feColorMatrix in="SourceAlpha" type="matrix" values="0 0 0 0 0 0 0 0 0 0 0 0 0 0 0 0 0 0 127 0" result="hardAlpha"/>
<feOffset dy="-0.2571"/>
<feGaussianBlur stdDeviation="0.2571"/>
<feComposite in2="hardAlpha" operator="arithmetic" k2="-1" k3="1"/>
<feColorMatrix type="matrix" values="0 0 0 0 1 0 0 0 0 1 0 0 0 0 1 0 0 0 0.28275 0"/>
<feBlend mode="normal" in2="effect3_innerShadow_385_34922" result="effect4_innerShadow_385_34922"/>
<feColorMatrix in="SourceAlpha" type="matrix" values="0 0 0 0 0 0 0 0 0 0 0 0 0 0 0 0 0 0 127 0" result="hardAlpha"/>
<feOffset dy="0.5142"/>
<feGaussianBlur stdDeviation="0.2571"/>
<feComposite in2="hardAlpha" operator="arithmetic" k2="-1" k3="1"/>
<feColorMatrix type="matrix" values="0 0 0 0 0.013651 0 0 0 0 0.102693 0 0 0 0 0.720731 0 0 0 0.609621 0"/>
<feBlend mode="normal" in2="effect4_innerShadow_385_34922" result="effect5_innerShadow_385_34922"/>
</filter>
<filter id="filter9_di_385_34922" x="102.831" y="12.7665" width="2.95133" height="2.28053" filterUnits="userSpaceOnUse" color-interpolation-filters="sRGB">
<feFlood flood-opacity="0" result="BackgroundImageFix"/>
<feColorMatrix in="SourceAlpha" type="matrix" values="0 0 0 0 0 0 0 0 0 0 0 0 0 0 0 0 0 0 127 0" result="hardAlpha"/>
<feOffset dy="0.5142"/>
<feGaussianBlur stdDeviation="0.5142"/>
<feColorMatrix type="matrix" values="0 0 0 0 0 0 0 0 0 0 0 0 0 0 0 0 0 0 0.311736 0"/>
<feBlend mode="normal" in2="BackgroundImageFix" result="effect1_dropShadow_385_34922"/>
<feBlend mode="normal" in="SourceGraphic" in2="effect1_dropShadow_385_34922" result="shape"/>
<feColorMatrix in="SourceAlpha" type="matrix" values="0 0 0 0 0 0 0 0 0 0 0 0 0 0 0 0 0 0 127 0" result="hardAlpha"/>
<feOffset dy="0.2571"/>
<feGaussianBlur stdDeviation="0.2571"/>
<feComposite in2="hardAlpha" operator="arithmetic" k2="-1" k3="1"/>
<feColorMatrix type="matrix" values="0 0 0 0 1 0 0 0 0 1 0 0 0 0 1 0 0 0 0.5 0"/>
<feBlend mode="normal" in2="shape" result="effect2_innerShadow_385_34922"/>
</filter>
<filter id="filter10_di_385_34922" x="102.942" y="14.2211" width="2.7277" height="2.28053" filterUnits="userSpaceOnUse" color-interpolation-filters="sRGB">
<feFlood flood-opacity="0" result="BackgroundImageFix"/>
<feColorMatrix in="SourceAlpha" type="matrix" values="0 0 0 0 0 0 0 0 0 0 0 0 0 0 0 0 0 0 127 0" result="hardAlpha"/>
<feOffset dy="0.5142"/>
<feGaussianBlur stdDeviation="0.5142"/>
<feColorMatrix type="matrix" values="0 0 0 0 0 0 0 0 0 0 0 0 0 0 0 0 0 0 0.311736 0"/>
<feBlend mode="normal" in2="BackgroundImageFix" result="effect1_dropShadow_385_34922"/>
<feBlend mode="normal" in="SourceGraphic" in2="effect1_dropShadow_385_34922" result="shape"/>
<feColorMatrix in="SourceAlpha" type="matrix" values="0 0 0 0 0 0 0 0 0 0 0 0 0 0 0 0 0 0 127 0" result="hardAlpha"/>
<feOffset/>
<feGaussianBlur stdDeviation="0.2571"/>
<feComposite in2="hardAlpha" operator="arithmetic" k2="-1" k3="1"/>
<feColorMatrix type="matrix" values="0 0 0 0 1 0 0 0 0 1 0 0 0 0 1 0 0 0 0.5 0"/>
<feBlend mode="normal" in2="shape" result="effect2_innerShadow_385_34922"/>
</filter>
<filter id="filter11_d_385_34922" x="102.317" y="12.1855" width="3.97973" height="3.86856" filterUnits="userSpaceOnUse" color-interpolation-filters="sRGB">
<feFlood flood-opacity="0" result="BackgroundImageFix"/>
<feColorMatrix in="SourceAlpha" type="matrix" values="0 0 0 0 0 0 0 0 0 0 0 0 0 0 0 0 0 0 127 0" result="hardAlpha"/>
<feOffset/>
<feGaussianBlur stdDeviation="0.7713"/>
<feColorMatrix type="matrix" values="0 0 0 0 0 0 0 0 0 0 0 0 0 0 0 0 0 0 0.5 0"/>
<feBlend mode="normal" in2="BackgroundImageFix" result="effect1_dropShadow_385_34922"/>
<feBlend mode="normal" in="SourceGraphic" in2="effect1_dropShadow_385_34922" result="shape"/>
</filter>
<filter id="filter12_d_385_34922" x="102.428" y="12.1855" width="3.8684" height="3.86856" filterUnits="userSpaceOnUse" color-interpolation-filters="sRGB">
<feFlood flood-opacity="0" result="BackgroundImageFix"/>
<feColorMatrix in="SourceAlpha" type="matrix" values="0 0 0 0 0 0 0 0 0 0 0 0 0 0 0 0 0 0 127 0" result="hardAlpha"/>
<feOffset/>
<feGaussianBlur stdDeviation="0.7713"/>
<feColorMatrix type="matrix" values="0 0 0 0 0 0 0 0 0 0 0 0 0 0 0 0 0 0 0.5 0"/>
<feBlend mode="normal" in2="BackgroundImageFix" result="effect1_dropShadow_385_34922"/>
<feBlend mode="normal" in="SourceGraphic" in2="effect1_dropShadow_385_34922" result="shape"/>
</filter>
<filter id="filter13_ii_385_34922" x="103.971" y="13.8402" width="0.670898" height="1.44275" filterUnits="userSpaceOnUse" color-interpolation-filters="sRGB">
<feFlood flood-opacity="0" result="BackgroundImageFix"/>
<feBlend mode="normal" in="SourceGraphic" in2="BackgroundImageFix" result="shape"/>
<feColorMatrix in="SourceAlpha" type="matrix" values="0 0 0 0 0 0 0 0 0 0 0 0 0 0 0 0 0 0 127 0" result="hardAlpha"/>
<feOffset dy="0.7713"/>
<feGaussianBlur stdDeviation="0.89985"/>
<feComposite in2="hardAlpha" operator="arithmetic" k2="-1" k3="1"/>
<feColorMatrix type="matrix" values="0 0 0 0 0 0 0 0 0 0 0 0 0 0 0 0 0 0 0.5 0"/>
<feBlend mode="normal" in2="shape" result="effect1_innerShadow_385_34922"/>
<feColorMatrix in="SourceAlpha" type="matrix" values="0 0 0 0 0 0 0 0 0 0 0 0 0 0 0 0 0 0 127 0" result="hardAlpha"/>
<feOffset dy="0.5142"/>
<feGaussianBlur stdDeviation="0.2571"/>
<feComposite in2="hardAlpha" operator="arithmetic" k2="-1" k3="1"/>
<feColorMatrix type="matrix" values="0 0 0 0 0.176471 0 0 0 0 0.329412 0 0 0 0 0.317647 0 0 0 0.254642 0"/>
<feBlend mode="normal" in2="effect1_innerShadow_385_34922" result="effect2_innerShadow_385_34922"/>
</filter>
<filter id="filter14_f_385_34922" x="102.713" y="12.9174" width="3.18826" height="2.96456" filterUnits="userSpaceOnUse" color-interpolation-filters="sRGB">
<feFlood flood-opacity="0" result="BackgroundImageFix"/>
<feBlend mode="normal" in="SourceGraphic" in2="BackgroundImageFix" result="shape"/>
<feGaussianBlur stdDeviation="0.685247" result="effect1_foregroundBlur_385_34922"/>
</filter>
<filter id="filter15_di_385_34922" x="103.423" y="14.0306" width="1.76623" height="1.65451" filterUnits="userSpaceOnUse" color-interpolation-filters="sRGB">
<feFlood flood-opacity="0" result="BackgroundImageFix"/>
<feColorMatrix in="SourceAlpha" type="matrix" values="0 0 0 0 0 0 0 0 0 0 0 0 0 0 0 0 0 0 127 0" result="hardAlpha"/>
<feOffset dy="0.5142"/>
<feGaussianBlur stdDeviation="0.38565"/>
<feColorMatrix type="matrix" values="0 0 0 0 0 0 0 0 0 0 0 0 0 0 0 0 0 0 0.311736 0"/>
<feBlend mode="normal" in2="BackgroundImageFix" result="effect1_dropShadow_385_34922"/>
<feBlend mode="normal" in="SourceGraphic" in2="effect1_dropShadow_385_34922" result="shape"/>
<feColorMatrix in="SourceAlpha" type="matrix" values="0 0 0 0 0 0 0 0 0 0 0 0 0 0 0 0 0 0 127 0" result="hardAlpha"/>
<feOffset/>
<feGaussianBlur stdDeviation="0.2571"/>
<feComposite in2="hardAlpha" operator="arithmetic" k2="-1" k3="1"/>
<feColorMatrix type="matrix" values="0 0 0 0 1 0 0 0 0 1 0 0 0 0 1 0 0 0 0.5 0"/>
<feBlend mode="normal" in2="shape" result="effect2_innerShadow_385_34922"/>
</filter>
<filter id="filter16_di_385_34922" x="103.569" y="13.8402" width="1.36336" height="1.25197" filterUnits="userSpaceOnUse" color-interpolation-filters="sRGB">
<feFlood flood-opacity="0" result="BackgroundImageFix"/>
<feColorMatrix in="SourceAlpha" type="matrix" values="0 0 0 0 0 0 0 0 0 0 0 0 0 0 0 0 0 0 127 0" result="hardAlpha"/>
<feOffset dy="0.5142"/>
<feGaussianBlur stdDeviation="0.2571"/>
<feColorMatrix type="matrix" values="0 0 0 0 0 0 0 0 0 0 0 0 0 0 0 0 0 0 0.311736 0"/>
<feBlend mode="normal" in2="BackgroundImageFix" result="effect1_dropShadow_385_34922"/>
<feBlend mode="normal" in="SourceGraphic" in2="effect1_dropShadow_385_34922" result="shape"/>
<feColorMatrix in="SourceAlpha" type="matrix" values="0 0 0 0 0 0 0 0 0 0 0 0 0 0 0 0 0 0 127 0" result="hardAlpha"/>
<feOffset dy="0.2571"/>
<feGaussianBlur stdDeviation="0.2571"/>
<feComposite in2="hardAlpha" operator="arithmetic" k2="-1" k3="1"/>
<feColorMatrix type="matrix" values="0 0 0 0 1 0 0 0 0 1 0 0 0 0 1 0 0 0 0.5 0"/>
<feBlend mode="normal" in2="shape" result="effect2_innerShadow_385_34922"/>
</filter>
<filter id="filter17_f_385_34922" x="100.797" y="11.2257" width="6.9074" height="6.79528" filterUnits="userSpaceOnUse" color-interpolation-filters="sRGB">
<feFlood flood-opacity="0" result="BackgroundImageFix"/>
<feBlend mode="normal" in="SourceGraphic" in2="BackgroundImageFix" result="shape"/>
<feGaussianBlur stdDeviation="1.58696" result="effect1_foregroundBlur_385_34922"/>
</filter>
<filter id="filter18_d_385_34922" x="74.9702" y="13.0284" width="22.0587" height="3.53203" filterUnits="userSpaceOnUse" color-interpolation-filters="sRGB">
<feFlood flood-opacity="0" result="BackgroundImageFix"/>
<feColorMatrix in="SourceAlpha" type="matrix" values="0 0 0 0 0 0 0 0 0 0 0 0 0 0 0 0 0 0 127 0" result="hardAlpha"/>
<feOffset dy="0.5142"/>
<feGaussianBlur stdDeviation="0.2571"/>
<feColorMatrix type="matrix" values="0 0 0 0 1 0 0 0 0 1 0 0 0 0 1 0 0 0 0.217589 0"/>
<feBlend mode="normal" in2="BackgroundImageFix" result="effect1_dropShadow_385_34922"/>
<feBlend mode="normal" in="SourceGraphic" in2="effect1_dropShadow_385_34922" result="shape"/>
</filter>
<linearGradient id="paint0_linear_385_34922" x1="4.01074" y1="3.15353" x2="4.01074" y2="342.119" gradientUnits="userSpaceOnUse">
<stop stop-color="#5F5F5F"/>
<stop offset="0.0101238" stop-color="#222222"/>
<stop offset="1" stop-color="#252525"/>
</linearGradient>
<linearGradient id="paint1_linear_385_34922" x1="5.60352" y1="4.74741" x2="5.60352" y2="339.994" gradientUnits="userSpaceOnUse">
<stop stop-color="#6D6D6D"/>
<stop offset="0.0161168"/>
<stop offset="0.984697"/>
<stop offset="1" stop-color="#5C5C5C"/>
</linearGradient>
<linearGradient id="paint2_linear_385_34922" x1="106.715" y1="16.6974" x2="106.715" y2="11.9158" gradientUnits="userSpaceOnUse">
<stop stop-color="#1F1F1F"/>
<stop offset="1" stop-color="#0F0F0F"/>
</linearGradient>
<radialGradient id="paint3_radial_385_34922" cx="0" cy="0" r="1" gradientUnits="userSpaceOnUse" gradientTransform="translate(103.867 15.114) rotate(104.437) scale(1.83407 1.60285)">
<stop stop-color="#154882"/>
<stop offset="1"/>
</radialGradient>
<radialGradient id="paint4_radial_385_34922" cx="0" cy="0" r="1" gradientUnits="userSpaceOnUse" gradientTransform="translate(104.306 13.5647) rotate(90) scale(1.72964 2.99324)">
<stop stop-color="#376CAB"/>
<stop offset="0.377337" stop-color="#151515"/>
<stop offset="0.536693"/>
<stop offset="1" stop-color="#0D7BB9"/>
</radialGradient>
<radialGradient id="paint5_radial_385_34922" cx="0" cy="0" r="1" gradientUnits="userSpaceOnUse" gradientTransform="translate(104.307 13.835) rotate(90) scale(0.450699 0.450351)">
<stop stop-color="#694B8D"/>
<stop offset="1" stop-opacity="0.01"/>
</radialGradient>
<radialGradient id="paint6_radial_385_34922" cx="0" cy="0" r="1" gradientUnits="userSpaceOnUse" gradientTransform="translate(104.865 14.842) rotate(90) scale(0.450699 0.450351)">
<stop stop-color="#80C2C8"/>
<stop offset="1" stop-opacity="0.01"/>
</radialGradient>
<radialGradient id="paint7_radial_385_34922" cx="0" cy="0" r="1" gradientUnits="userSpaceOnUse" gradientTransform="translate(104.306 13.9248) rotate(90) scale(0.698351 1.20315)">
<stop stop-color="#61737F"/>
<stop offset="0.387832"/>
<stop offset="1" stop-color="#227EB1"/>
</radialGradient>
<radialGradient id="paint8_radial_385_34922" cx="0" cy="0" r="1" gradientUnits="userSpaceOnUse" gradientTransform="translate(104.158 14.5124) rotate(90) scale(0.732115 0.73182)">
<stop stop-color="white"/>
<stop offset="1" stop-opacity="0.01"/>
</radialGradient>
</defs>
</svg>
