<svg width="158" height="54" viewBox="0 0 158 54" fill="none" xmlns="http://www.w3.org/2000/svg">
<g filter="url(#filter0_d_308_131306)">
<rect x="1" width="156" height="52" rx="8" fill="white"/>
<path fillRule="evenodd" clipRule="evenodd" d="M35.7494 25.8647C35.7873 30.1658 39.5128 31.5877 39.5573 31.6021C39.535 31.7023 38.9739 33.6564 37.5765 35.636C36.4097 37.3818 35.1872 39.0887 33.2454 39.1176C31.3593 39.1622 30.7246 38.0087 28.5613 38.0087C26.3779 38.0087 25.702 39.0887 23.8927 39.1622C22.0434 39.2301 20.6305 37.3006 19.4213 35.5703C17.0041 32.0397 15.1224 25.6209 17.6454 21.253C18.8679 19.1108 21.097 17.7313 23.4797 17.6946C25.3313 17.6567 27.0493 18.9449 28.1872 18.9449C29.3028 18.9449 31.4272 17.404 33.6173 17.6344C34.5336 17.6611 37.1412 17.9963 38.8236 20.4491C38.6877 20.5304 35.7171 22.2762 35.7494 25.8647ZM32.1986 15.3108C31.1832 16.5088 29.5587 17.4251 27.9766 17.3071C27.7695 15.6905 28.5711 13.9714 29.4685 12.9225C30.4829 11.7323 32.2443 10.8204 33.6528 10.7581C33.8376 12.4382 33.1718 14.0938 32.1986 15.3108ZM49.5978 11.7177H52.2115C54.5181 11.7177 55.8815 13.1566 55.8815 15.6033C55.8815 18.0553 54.5234 19.4942 52.2115 19.4942H49.5978V11.7177ZM50.5723 12.5912V18.6216H52.1513C53.9135 18.6216 54.8943 17.5438 54.8943 15.6145C54.8943 13.6691 53.9189 12.5912 52.1513 12.5912H50.5723ZM59.6293 19.5908C58.0772 19.5908 57.0317 18.4753 57.0317 16.6915C57.0317 14.9023 58.0772 13.7922 59.6293 13.7922C61.1759 13.7922 62.2214 14.9023 62.2214 16.6915C62.2214 18.4753 61.1759 19.5908 59.6293 19.5908ZM59.6295 18.7646C60.6211 18.7646 61.2678 18.0101 61.2678 16.6898C61.2678 15.3695 60.6211 14.615 59.6295 14.615C58.6379 14.615 57.9858 15.3695 57.9858 16.6898C57.9858 18.0101 58.6379 18.7646 59.6295 18.7646ZM70.6529 13.8887L69.0901 19.4934H68.1362L66.8698 15.1552H66.8482L65.5872 19.4934H64.6333L63.0651 13.8887H63.9974L65.1183 18.4479H65.1399L66.4063 13.8887H67.3117L68.5835 18.4479H68.6051L69.726 13.8887H70.6529ZM71.7988 19.4938V13.8892H72.6826V14.7838H72.7042C73.0167 14.1802 73.6149 13.7922 74.4825 13.7922C75.7112 13.7922 76.4226 14.5844 76.4226 15.8562V19.4938H75.4849V16.0232C75.4849 15.1179 75.0592 14.6221 74.1969 14.6221C73.3131 14.6221 72.7365 15.2472 72.7365 16.1957V19.4938H71.7988ZM78.015 19.4942V11.7177H78.9527V19.4942H78.015ZM82.928 19.5908C81.3759 19.5908 80.3304 18.4753 80.3304 16.6915C80.3304 14.9023 81.3759 13.7922 82.928 13.7922C84.4746 13.7922 85.5201 14.9023 85.5201 16.6915C85.5201 18.4753 84.4746 19.5908 82.928 19.5908ZM82.9282 18.7646C83.9198 18.7646 84.5665 18.0101 84.5665 16.6898C84.5665 15.3695 83.9198 14.615 82.9282 14.615C81.9366 14.615 81.2846 15.3695 81.2846 16.6898C81.2846 18.0101 81.9366 18.7646 82.9282 18.7646ZM88.4515 19.5908C87.336 19.5908 86.5869 18.9172 86.5869 17.9094C86.5869 16.9502 87.3252 16.3466 88.6186 16.2711L90.2245 16.1795V15.7107C90.2245 15.0263 89.7719 14.6167 88.9958 14.6167C88.2737 14.6167 87.821 14.9562 87.7024 15.5059H86.797C86.8617 14.5359 87.6916 13.7922 89.0174 13.7922C90.3323 13.7922 91.1622 14.5035 91.1622 15.6191V19.4938H90.273V18.5292H90.2515C89.9174 19.1705 89.206 19.5908 88.4515 19.5908ZM88.6821 18.7914C89.5659 18.7914 90.2449 18.1716 90.2449 17.3633V16.9052L88.7468 16.9968C87.9923 17.0453 87.5611 17.3794 87.5611 17.9076C87.5611 18.4411 88.0084 18.7914 88.6821 18.7914ZM94.8546 19.5912C93.4264 19.5912 92.4564 18.4487 92.4564 16.6918C92.4564 14.935 93.421 13.7925 94.833 13.7925C95.636 13.7925 96.2827 14.1859 96.6168 14.8003H96.6384V11.7177H97.5761V19.4942H96.6815V18.5457H96.6653C96.3042 19.1924 95.6629 19.5912 94.8546 19.5912ZM95.0279 14.615C94.0363 14.615 93.4112 15.4234 93.4112 16.6898C93.4112 17.9616 94.0363 18.7646 95.0279 18.7646C95.9926 18.7646 96.6393 17.9454 96.6393 16.6898C96.6393 15.4395 95.9926 14.615 95.0279 14.615ZM104.175 19.5908C102.623 19.5908 101.577 18.4753 101.577 16.6915C101.577 14.9023 102.623 13.7922 104.175 13.7922C105.721 13.7922 106.767 14.9023 106.767 16.6915C106.767 18.4753 105.721 19.5908 104.175 19.5908ZM104.175 18.7646C105.166 18.7646 105.813 18.0101 105.813 16.6898C105.813 15.3695 105.166 14.615 104.175 14.615C103.183 14.615 102.531 15.3695 102.531 16.6898C102.531 18.0101 103.183 18.7646 104.175 18.7646ZM108.076 19.4938V13.8892H108.96V14.7838H108.981C109.294 14.1802 109.892 13.7922 110.76 13.7922C111.989 13.7922 112.7 14.5844 112.7 15.8562V19.4938H111.762V16.0232C111.762 15.1179 111.336 14.6221 110.474 14.6221C109.59 14.6221 109.014 15.2472 109.014 16.1957V19.4938H108.076ZM117.179 12.5378H118.117V13.8905H119.206V14.6611H118.117V17.9916C118.117 18.5036 118.333 18.7353 118.812 18.7353C118.92 18.7353 119.136 18.7191 119.2 18.7083V19.4951C119.087 19.5221 118.829 19.5383 118.608 19.5383C117.578 19.5383 117.179 19.1179 117.179 18.0401V14.6611H116.344V13.8905H117.179V12.5378ZM120.63 19.4942V11.7177H121.567V14.7841H121.589C121.902 14.159 122.516 13.7925 123.367 13.7925C124.596 13.7925 125.34 14.6224 125.34 15.8727V19.4942H124.402V16.0452C124.402 15.156 123.955 14.6224 123.076 14.6224C122.144 14.6224 121.567 15.2584 121.567 16.2284V19.4942H120.63ZM130.616 17.8879H131.537C131.375 18.8687 130.427 19.5908 129.204 19.5908C127.598 19.5908 126.622 18.4753 126.622 16.713C126.622 14.9724 127.614 13.7922 129.161 13.7922C130.675 13.7922 131.607 14.8915 131.607 16.5891V16.9448H127.587V16.9987C127.587 18.0711 128.217 18.7771 129.225 18.7771C129.937 18.7771 130.459 18.416 130.616 17.8879ZM129.149 14.6047C128.27 14.6047 127.656 15.2784 127.597 16.2107H130.641C130.62 15.273 130.033 14.6047 129.149 14.6047ZM58.6837 38.5558L57.3257 34.5433H51.6672L50.3091 38.5558H47.912L53.2721 23.7098H55.7619L61.122 38.5558H58.6837ZM54.4693 26.1804L52.2573 32.6929H56.743L54.531 26.1804H54.4693ZM68.6408 27.559C71.3877 27.559 73.1984 29.7195 73.1984 33.1455C73.1984 36.5714 71.398 38.7423 68.6819 38.7423C67.1284 38.7423 65.8938 37.9809 65.2765 36.7772H65.2251V42.1374H63.0028V27.7339H65.1531V29.596H65.1942C65.8321 28.3511 67.077 27.559 68.6408 27.559ZM68.0365 36.8609C69.7958 36.8609 70.8966 35.4205 70.8966 33.1468C70.8966 30.8834 69.7958 29.4328 68.0365 29.4328C66.3389 29.4328 65.1969 30.9143 65.1969 33.1468C65.1969 35.3999 66.3286 36.8609 68.0365 36.8609ZM81.0316 27.559C83.7785 27.559 85.5892 29.7195 85.5892 33.1455C85.5892 36.5714 83.7888 38.7423 81.0727 38.7423C79.5192 38.7423 78.2846 37.9809 77.6673 36.7772H77.6159V42.1374H75.3936V27.7339H77.5438V29.596H77.585C78.2229 28.3511 79.4677 27.559 81.0316 27.559ZM80.4474 36.8609C82.2067 36.8609 83.3075 35.4205 83.3075 33.1468C83.3075 30.8834 82.2067 29.4328 80.4474 29.4328C78.7498 29.4328 77.6078 30.9143 77.6078 33.1468C77.6078 35.3999 78.7396 36.8609 80.4474 36.8609ZM92.1923 34.423H94.466C94.6306 35.8942 96.0607 36.8613 98.0155 36.8613C99.8879 36.8613 101.236 35.8942 101.236 34.567C101.236 33.4147 100.423 32.7254 98.499 32.2522L96.5751 31.7892C93.8487 31.1307 92.5832 29.855 92.5832 27.7871C92.5832 25.2253 94.8158 23.466 97.9846 23.466C101.123 23.466 103.273 25.2253 103.345 27.7871H101.102C100.968 26.3055 99.7439 25.4105 97.9537 25.4105C96.1636 25.4105 94.9393 26.3158 94.9393 27.6327C94.9393 28.6821 95.7212 29.2994 97.6348 29.7727L99.2706 30.1739C102.316 30.8941 103.581 32.1184 103.581 34.2892C103.581 37.0671 101.369 38.8058 97.8509 38.8058C94.5586 38.8058 92.3363 37.1082 92.1923 34.423ZM106.523 25.1723H108.756V27.7341H110.814V29.4933H108.756V35.4605C108.756 36.3968 109.167 36.8186 110.073 36.8186C110.299 36.8186 110.659 36.798 110.803 36.7671V38.5264C110.556 38.5882 110.062 38.6293 109.569 38.6293C107.377 38.6293 106.523 37.796 106.523 35.7074V29.4933H104.949V27.7341H106.523V25.1723ZM117.518 38.7631C114.421 38.7631 112.384 36.6334 112.384 33.1457C112.384 29.6683 114.431 27.5386 117.518 27.5386C120.604 27.5386 122.651 29.6683 122.651 33.1457C122.651 36.6334 120.614 38.7631 117.518 38.7631ZM117.529 36.9313C119.278 36.9313 120.4 35.5527 120.4 33.1452C120.4 30.7481 119.268 29.3695 117.529 29.3695C115.79 29.3695 114.659 30.7481 114.659 33.1452C114.659 35.5527 115.79 36.9313 117.529 36.9313ZM124.876 38.557V27.7339H126.995V29.5754H127.047C127.407 28.31 128.374 27.559 129.65 27.559C129.969 27.559 130.246 27.6104 130.411 27.6413V29.7092C130.236 29.6372 129.845 29.5857 129.413 29.5857C127.983 29.5857 127.098 30.5425 127.098 32.0755V38.557H124.876ZM139.457 35.3782H141.566C141.257 37.3536 139.385 38.7631 136.905 38.7631C133.726 38.7631 131.802 36.6128 131.802 33.1971C131.802 29.802 133.757 27.5386 136.813 27.5386C139.817 27.5386 141.689 29.658 141.689 32.9399V33.7013H134.045V33.835C134.045 35.7178 135.177 36.9626 136.957 36.9626C138.222 36.9626 139.158 36.3248 139.457 35.3782ZM136.834 29.3288C135.28 29.3288 134.19 30.5119 134.077 32.1478H139.488C139.437 30.4914 138.387 29.3288 136.834 29.3288Z" fill="#585757"/>
<rect x="1.5" y="0.5" width="155" height="51" rx="7.5" stroke="#E8E8E8"/>
</g>
<defs>
<filter id="filter0_d_308_131306" x="0" y="0" width="158" height="54" filterUnits="userSpaceOnUse" color-interpolation-filters="sRGB">
<feFlood flood-opacity="0" result="BackgroundImageFix"/>
<feColorMatrix in="SourceAlpha" type="matrix" values="0 0 0 0 0 0 0 0 0 0 0 0 0 0 0 0 0 0 127 0" result="hardAlpha"/>
<feOffset dy="1"/>
<feGaussianBlur stdDeviation="0.5"/>
<feColorMatrix type="matrix" values="0 0 0 0 0 0 0 0 0 0 0 0 0 0 0 0 0 0 0.06 0"/>
<feBlend mode="normal" in2="BackgroundImageFix" result="effect1_dropShadow_308_131306"/>
<feBlend mode="normal" in="SourceGraphic" in2="effect1_dropShadow_308_131306" result="shape"/>
</filter>
</defs>
</svg>
