<svg width="14" height="14" viewBox="0 0 14 14" fill="none" xmlns="http://www.w3.org/2000/svg">
<path fill-rule="evenodd" clip-rule="evenodd" d="M7.1276 0.333374C3.44094 0.333374 0.460938 3.31337 0.460938 7.00004C0.460938 10.6867 3.44094 13.6667 7.1276 13.6667C10.8143 13.6667 13.7943 10.6867 13.7943 7.00004C13.7943 3.31337 10.8143 0.333374 7.1276 0.333374ZM9.99427 9.86671C9.73427 10.1267 9.31427 10.1267 9.05427 9.86671L7.1276 7.94004L5.20094 9.86671C4.94094 10.1267 4.52094 10.1267 4.26094 9.86671C4.00094 9.60671 4.00094 9.18671 4.26094 8.92671L6.1876 7.00004L4.26094 5.07337C4.00094 4.81337 4.00094 4.39337 4.26094 4.13337C4.52094 3.87337 4.94094 3.87337 5.20094 4.13337L7.1276 6.06004L9.05427 4.13337C9.31427 3.87337 9.73427 3.87337 9.99427 4.13337C10.2543 4.39337 10.2543 4.81337 9.99427 5.07337L8.0676 7.00004L9.99427 8.92671C10.2476 9.18004 10.2476 9.60671 9.99427 9.86671Z" fill="#969696"/>
</svg>
