<svg width="16" height="16" viewBox="0 0 16 16" fill="none" xmlns="http://www.w3.org/2000/svg">
<path fill-rule="evenodd" clip-rule="evenodd" d="M13.334 1.33331H2.66732C1.93398 1.33331 1.34065 1.93331 1.34065 2.66665L1.33398 14.6666L4.00065 12H13.334C14.0673 12 14.6673 11.4 14.6673 10.6666V2.66665C14.6673 1.93331 14.0673 1.33331 13.334 1.33331ZM11.334 9.33331H4.66732C4.30065 9.33331 4.00065 9.03331 4.00065 8.66665C4.00065 8.29998 4.30065 7.99998 4.66732 7.99998H11.334C11.7007 7.99998 12.0007 8.29998 12.0007 8.66665C12.0007 9.03331 11.7007 9.33331 11.334 9.33331ZM11.334 7.33331H4.66732C4.30065 7.33331 4.00065 7.03331 4.00065 6.66665C4.00065 6.29998 4.30065 5.99998 4.66732 5.99998H11.334C11.7007 5.99998 12.0007 6.29998 12.0007 6.66665C12.0007 7.03331 11.7007 7.33331 11.334 7.33331ZM11.334 5.33331H4.66732C4.30065 5.33331 4.00065 5.03331 4.00065 4.66665C4.00065 4.29998 4.30065 3.99998 4.66732 3.99998H11.334C11.7007 3.99998 12.0007 4.29998 12.0007 4.66665C12.0007 5.03331 11.7007 5.33331 11.334 5.33331Z" fill="#585757"/>
</svg>
