<svg width="16" height="16" viewBox="0 0 16 16" fill="none" xmlns="http://www.w3.org/2000/svg">
<path fill-rule="evenodd" clip-rule="evenodd" d="M13.334 2.00002H12.6673V1.33335C12.6673 0.966687 12.3673 0.666687 12.0007 0.666687C11.634 0.666687 11.334 0.966687 11.334 1.33335V2.00002H4.66732V1.33335C4.66732 0.966687 4.36732 0.666687 4.00065 0.666687C3.63398 0.666687 3.33398 0.966687 3.33398 1.33335V2.00002H2.66732C1.93398 2.00002 1.33398 2.60002 1.33398 3.33335V14C1.33398 14.7334 1.93398 15.3334 2.66732 15.3334H13.334C14.0673 15.3334 14.6673 14.7334 14.6673 14V3.33335C14.6673 2.60002 14.0673 2.00002 13.334 2.00002ZM12.6673 14H3.33398C2.96732 14 2.66732 13.7 2.66732 13.3334V5.33335H13.334V13.3334C13.334 13.7 13.034 14 12.6673 14Z" fill="#585757"/>
</svg>
