<svg width="16" height="16" viewBox="0 0 16 16" fill="none" xmlns="http://www.w3.org/2000/svg">
<path fill-rule="evenodd" clip-rule="evenodd" d="M3.9987 12.6667C3.9987 13.4 4.5987 14 5.33203 14H10.6654C11.3987 14 11.9987 13.4 11.9987 12.6667V6C11.9987 5.26667 11.3987 4.66667 10.6654 4.66667H5.33203C4.5987 4.66667 3.9987 5.26667 3.9987 6V12.6667ZM5.9987 6H9.9987C10.3654 6 10.6654 6.3 10.6654 6.66667V12C10.6654 12.3667 10.3654 12.6667 9.9987 12.6667H5.9987C5.63203 12.6667 5.33203 12.3667 5.33203 12V6.66667C5.33203 6.3 5.63203 6 5.9987 6ZM10.332 2.66667L9.8587 2.19333C9.7387 2.07333 9.56536 2 9.39203 2H6.60536C6.43203 2 6.2587 2.07333 6.1387 2.19333L5.66536 2.66667H3.9987C3.63203 2.66667 3.33203 2.96667 3.33203 3.33333C3.33203 3.7 3.63203 4 3.9987 4H11.9987C12.3654 4 12.6654 3.7 12.6654 3.33333C12.6654 2.96667 12.3654 2.66667 11.9987 2.66667H10.332Z" fill="#E92C2C"/>
<path fill-rule="evenodd" clip-rule="evenodd" d="M3.9987 12.6667C3.9987 13.4 4.5987 14 5.33203 14H10.6654C11.3987 14 11.9987 13.4 11.9987 12.6667V6C11.9987 5.26667 11.3987 4.66667 10.6654 4.66667H5.33203C4.5987 4.66667 3.9987 5.26667 3.9987 6V12.6667ZM5.9987 6H9.9987C10.3654 6 10.6654 6.3 10.6654 6.66667V12C10.6654 12.3667 10.3654 12.6667 9.9987 12.6667H5.9987C5.63203 12.6667 5.33203 12.3667 5.33203 12V6.66667C5.33203 6.3 5.63203 6 5.9987 6ZM10.332 2.66667L9.8587 2.19333C9.7387 2.07333 9.56536 2 9.39203 2H6.60536C6.43203 2 6.2587 2.07333 6.1387 2.19333L5.66536 2.66667H3.9987C3.63203 2.66667 3.33203 2.96667 3.33203 3.33333C3.33203 3.7 3.63203 4 3.9987 4H11.9987C12.3654 4 12.6654 3.7 12.6654 3.33333C12.6654 2.96667 12.3654 2.66667 11.9987 2.66667H10.332Z" fill="white" fill-opacity="0.4"/>
</svg>
