<svg width="158" height="54" viewBox="0 0 158 54" fill="none" xmlns="http://www.w3.org/2000/svg">
<g filter="url(#filter0_d_308_131343)">
<rect x="1" width="156" height="52" rx="8" fill="white"/>
<path fill-rule="evenodd" clip-rule="evenodd" d="M136.36 36.2389L132.432 27.3H134.743L137.516 33.6092L140.288 27.3H142.6L136.472 41.2422H134.161L136.36 36.2389ZM107.508 22.4708H112.627C115.108 22.4708 117.138 24.5008 117.138 26.9821C117.138 29.4633 115.108 31.4933 112.627 31.4933H109.624V36.6321H107.508V22.4709V22.4708ZM57.3001 28.7774L57.2999 28.7768C57.2999 28.7768 57.424 29.2712 57.424 30.1263C57.424 34.18 54.4948 36.9215 50.4931 36.9215C45.9432 36.9215 42.8528 33.2224 42.8528 29.4288C42.8528 25.5573 46.1382 21.973 50.3849 21.9731C53.72 21.9731 55.5486 24.0088 55.5486 24.0088L54.1238 25.4841C54.1238 25.4841 52.7646 24.0134 50.4577 24.0134C47.4679 24.0134 45.0832 26.3853 45.0832 29.4651C45.0832 32.6263 47.5847 34.8821 50.4515 34.8821C52.6921 34.8821 55.0659 33.6652 55.3063 30.8121H50.4433V28.7774H57.3001ZM63.1209 27.305C65.4335 27.305 67.9415 28.9439 67.9415 32.126C67.9415 34.9023 65.7854 36.9139 63.1536 36.9139C60.2464 36.9139 58.2908 34.6734 58.2908 32.0701C58.2908 29.5046 60.3071 27.305 63.1209 27.305ZM73.7436 27.305C76.0566 27.305 78.5644 28.9439 78.5644 32.126C78.5644 34.9023 76.4083 36.9139 73.7767 36.9139C70.8693 36.9139 68.9136 34.6734 68.9136 32.0701C68.9136 29.5046 70.93 27.305 73.7436 27.305ZM63.1525 29.1916V29.1918C61.5979 29.1918 60.403 30.4346 60.403 32.0988C60.403 33.7996 61.6128 35.0276 63.1461 35.0276C64.5416 35.0276 65.8473 33.877 65.8473 32.1129C65.8473 30.3104 64.5362 29.1916 63.1525 29.1916ZM73.7754 29.1916V29.1918C72.2206 29.1918 71.0261 30.4346 71.0261 32.0988C71.0261 33.7996 72.2357 35.0276 73.7689 35.0276C75.1645 35.0276 76.4702 33.877 76.4702 32.1129C76.4702 30.3104 75.159 29.1916 73.7754 29.1916ZM84.1504 27.3102V27.3103C85.2747 27.3103 86.1217 27.7453 86.741 28.4128V27.599H88.7553V36.2321C88.7553 39.6241 86.7984 41.2411 84.2306 41.2411C81.8832 41.2411 80.5646 39.7978 79.9093 38.4119L81.7559 37.64C82.0117 38.2592 82.7478 39.3509 84.2153 39.3509C85.7344 39.3509 86.7408 38.3577 86.7408 36.7002V35.7528C86.2034 36.3766 85.4754 36.9203 84.1059 36.9203C81.8913 36.9203 79.5379 35.0026 79.5379 32.1106C79.5379 29.572 81.5681 27.3102 84.1504 27.3102ZM84.3364 29.1941C82.9812 29.1941 81.6507 30.2949 81.6507 32.1394C81.6507 33.9145 82.9318 35.0324 84.3084 35.0324C85.6053 35.0324 86.9028 33.9982 86.9028 32.1215C86.9028 30.2752 85.6026 29.1941 84.3364 29.1941ZM98.1167 27.2976L98.1169 27.2979C100.038 27.2979 101.49 28.5791 102.112 30.1131L102.447 30.8965L96.0044 33.5696C96.3892 34.286 97.0104 35.0256 98.3608 35.0258C99.5632 35.0258 100.284 34.372 100.715 33.7031L102.376 34.8082C101.631 35.8046 100.383 36.9166 98.3507 36.9166C95.9152 36.9166 93.6354 35.1219 93.6354 32.0958C93.6354 29.2358 95.6807 27.2976 98.1167 27.2976ZM98.2089 29.1459H98.2087C96.8179 29.1459 95.499 30.578 95.6844 31.9702L99.9866 30.1721C99.7183 29.6124 99.0867 29.1459 98.2089 29.1459ZM90.364 36.6319V22.4707H92.4801V36.6319H90.364ZM118.74 36.6319V22.4707H120.856V36.6319H118.74ZM109.622 24.5858V29.3762H112.624C113.938 29.3762 115.02 28.2943 115.02 26.9811C115.02 25.6677 113.938 24.5858 112.624 24.5858H109.622ZM129.516 36.6308V35.4878C129.028 36.068 128.433 36.5171 127.677 36.7232C126.334 37.0892 124.7 36.9448 123.704 35.8738C123.066 35.1864 122.861 34.0585 122.981 33.1434C123.203 31.45 124.596 30.4162 126.224 30.2514C127.267 30.1459 128.409 30.3488 129.466 30.6287C129.234 28.3201 125.719 27.8245 124.486 29.9786L122.784 28.836C125.303 25.0492 131.963 26.2847 131.632 31.5376V36.6308H129.516ZM129.512 32.5371C128.92 32.3453 128.376 32.1906 127.751 32.1152C124.115 31.5685 124.724 35.5442 127.171 34.8772C128.329 34.5618 129.242 33.7147 129.512 32.5371ZM49.8549 13.8546V13.8544C49.8549 13.8544 49.9115 14.0794 49.9115 14.4686C49.9115 16.3134 48.5784 17.5608 46.7571 17.5608C44.6866 17.5608 43.2803 15.8775 43.2803 14.151C43.2803 12.3892 44.7753 10.7581 46.7079 10.7581C48.2257 10.7581 49.0579 11.6844 49.0579 11.6844L48.4096 12.3558C48.4096 12.3558 47.791 11.6867 46.741 11.6867C45.3804 11.6867 44.2952 12.766 44.2952 14.1676C44.2952 15.6064 45.4337 16.6329 46.7383 16.6329C47.758 16.6329 48.8382 16.0791 48.9477 14.7805H46.7345V13.8546H49.8549ZM62.6172 17.4287V10.9841H63.5801V17.4287H62.6172ZM57.2107 17.4287V11.947H55.63V10.9841H59.7545V11.947H58.1738V17.4287H57.2107ZM50.918 17.4287V10.9841H54.6112V11.947H51.8811V13.7249H54.2826V14.6879H51.8811V16.4656H54.6112V17.4287H50.918ZM66.8887 17.4287H65.9258V11.947H64.3451V10.9841H68.4694V11.947H66.8887V17.4287ZM74.3935 10.7581C76.3261 10.7581 77.8213 12.3891 77.8213 14.1509C77.8213 15.8636 76.4371 17.5337 74.3935 17.5601C72.3499 17.5337 70.9657 15.8636 70.9657 14.1509C70.9657 12.3891 72.4608 10.7581 74.3935 10.7581ZM74.375 16.6327C75.6669 16.6169 76.7878 15.5955 76.7878 14.1679C76.7878 12.7778 75.7202 11.7047 74.375 11.6873C73.03 11.7047 71.9623 12.7778 71.9623 14.1679C71.9623 15.5955 73.0831 16.6169 74.375 16.6327ZM78.7662 17.4287V10.9841H79.7293L82.8205 15.676V10.9841H83.7836V17.4287H82.8221L79.7293 12.7344V17.4287H78.7662ZM16.9815 18.7943L27.862 29.6586L17.0337 40.6181C16.7177 40.4173 16.5483 39.9825 16.5454 39.4209C16.54 38.3437 16.4538 21.2519 16.4473 19.9694C16.4443 19.3543 16.668 18.9791 16.9815 18.7943ZM31.4595 26.0282L28.3216 29.2038L17.767 18.6647C17.9269 18.6857 18.0874 18.7327 18.2287 18.8098L31.4595 26.0282ZM32.0297 32.9275L28.7567 29.6593L32.0264 26.3504L36.5291 28.8066C37.6383 29.4114 37.071 30.1681 36.5291 30.4646L32.0297 32.9275ZM17.9303 40.6235L28.315 30.1134L31.4524 33.2462L18.2189 40.4891C18.1189 40.545 18.0226 40.5888 17.9303 40.6235Z" fill="#585757"/>
<rect x="1.5" y="0.5" width="155" height="51" rx="7.5" stroke="#E8E8E8"/>
</g>
<defs>
<filter id="filter0_d_308_131343" x="0" y="0" width="158" height="54" filterUnits="userSpaceOnUse" color-interpolation-filters="sRGB">
<feFlood flood-opacity="0" result="BackgroundImageFix"/>
<feColorMatrix in="SourceAlpha" type="matrix" values="0 0 0 0 0 0 0 0 0 0 0 0 0 0 0 0 0 0 127 0" result="hardAlpha"/>
<feOffset dy="1"/>
<feGaussianBlur stdDeviation="0.5"/>
<feColorMatrix type="matrix" values="0 0 0 0 0 0 0 0 0 0 0 0 0 0 0 0 0 0 0.06 0"/>
<feBlend mode="normal" in2="BackgroundImageFix" result="effect1_dropShadow_308_131343"/>
<feBlend mode="normal" in="SourceGraphic" in2="effect1_dropShadow_308_131343" result="shape"/>
</filter>
</defs>
</svg>
