<svg width="20" height="20" viewBox="0 0 20 20" fill="none" xmlns="http://www.w3.org/2000/svg">
<path fill-rule="evenodd" clip-rule="evenodd" d="M10.934 1.71672L6.31732 6.33339C6.00898 6.64172 5.83398 7.06672 5.83398 7.50839V15.8334C5.83398 16.7501 6.58398 17.5001 7.50065 17.5001H15.0007C15.6673 17.5001 16.2673 17.1001 16.534 16.4917L19.2507 10.1501C19.9507 8.50006 18.7423 6.66672 16.9507 6.66672H12.2423L13.034 2.85006C13.1173 2.43339 12.9923 2.00839 12.6923 1.70839C12.2007 1.22506 11.4173 1.22506 10.934 1.71672ZM2.50065 17.5001C3.41732 17.5001 4.16732 16.7501 4.16732 15.8334V9.16672C4.16732 8.25006 3.41732 7.50006 2.50065 7.50006C1.58398 7.50006 0.833984 8.25006 0.833984 9.16672V15.8334C0.833984 16.7501 1.58398 17.5001 2.50065 17.5001Z" fill="#969696"/>
</svg>
