<svg width="20" height="17" viewBox="0 0 20 17" fill="none" xmlns="http://www.w3.org/2000/svg">
<path fillRule="evenodd" clipRule="evenodd" d="M10.934 0.716722L6.31732 5.33339C6.00898 5.64172 5.83398 6.06672 5.83398 6.50839V14.8334C5.83398 15.7501 6.58398 16.5001 7.50065 16.5001H15.0007C15.6673 16.5001 16.2673 16.1001 16.534 15.4917L19.2507 9.15005C19.9507 7.50006 18.7423 5.66672 16.9507 5.66672H12.2423L13.034 1.85006C13.1173 1.43339 12.9923 1.00839 12.6923 0.708389C12.2007 0.225056 11.4173 0.225056 10.934 0.716722ZM2.50065 16.5001C3.41732 16.5001 4.16732 15.7501 4.16732 14.8334V8.16672C4.16732 7.25006 3.41732 6.50006 2.50065 6.50006C1.58398 6.50006 0.833984 7.25006 0.833984 8.16672V14.8334C0.833984 15.7501 1.58398 16.5001 2.50065 16.5001Z" fill="#969696"/>
</svg>
