<svg width="12" height="12" viewBox="0 0 12 12" fill="none" xmlns="http://www.w3.org/2000/svg">
<path fill-rule="evenodd" clip-rule="evenodd" d="M1.33268 3.66663H1.49935C2.14102 3.66663 2.66602 4.19163 2.66602 4.83329V10.6666C2.66602 11.3083 2.14102 11.8333 1.49935 11.8333H1.33268C0.691016 11.8333 0.166016 11.3083 0.166016 10.6666V4.83329C0.166016 4.19163 0.691016 3.66663 1.33268 3.66663ZM5.99935 0.166626C6.64102 0.166626 7.16602 0.691626 7.16602 1.33329V10.6666C7.16602 11.3083 6.64102 11.8333 5.99935 11.8333C5.35768 11.8333 4.83268 11.3083 4.83268 10.6666V1.33329C4.83268 0.691626 5.35768 0.166626 5.99935 0.166626ZM10.666 6.83329C11.3077 6.83329 11.8327 7.35829 11.8327 7.99996V10.6666C11.8327 11.3083 11.3077 11.8333 10.666 11.8333C10.0243 11.8333 9.49935 11.3083 9.49935 10.6666V7.99996C9.49935 7.35829 10.0243 6.83329 10.666 6.83329Z" fill="#969696"/>
</svg>
