<svg width="16" height="16" viewBox="0 0 16 16" fill="none" xmlns="http://www.w3.org/2000/svg">
<path fill-rule="evenodd" clip-rule="evenodd" d="M12.7872 0.991667C12.4706 0.675 12.0456 0.5 11.6039 0.5H2.29557C1.37057 0.5 0.628906 1.25 0.628906 2.16667V13.8333C0.628906 14.75 1.37891 15.5 2.29557 15.5H13.9622C14.8789 15.5 15.6289 14.75 15.6289 13.8333V4.525C15.6289 4.08333 15.4539 3.65833 15.1372 3.35L12.7872 0.991667ZM8.12891 13.8333C6.74557 13.8333 5.62891 12.7167 5.62891 11.3333C5.62891 9.95 6.74557 8.83333 8.12891 8.83333C9.51224 8.83333 10.6289 9.95 10.6289 11.3333C10.6289 12.7167 9.51224 13.8333 8.12891 13.8333ZM8.96224 5.5H3.96224C3.04557 5.5 2.29557 4.75 2.29557 3.83333C2.29557 2.91667 3.04557 2.16667 3.96224 2.16667H8.96224C9.87891 2.16667 10.6289 2.91667 10.6289 3.83333C10.6289 4.75 9.87891 5.5 8.96224 5.5Z" fill="#969696"/>
</svg>
