<svg width="16" height="16" viewBox="0 0 16 16" fill="none" xmlns="http://www.w3.org/2000/svg">
<path fillRule="evenodd" clipRule="evenodd" d="M12.6583 0.991667C12.3417 0.675 11.9167 0.5 11.475 0.5H2.16667C1.24167 0.5 0.5 1.25 0.5 2.16667V13.8333C0.5 14.75 1.25 15.5 2.16667 15.5H13.8333C14.75 15.5 15.5 14.75 15.5 13.8333V4.525C15.5 4.08333 15.325 3.65833 15.0083 3.35L12.6583 0.991667ZM8 13.8333C6.61667 13.8333 5.5 12.7167 5.5 11.3333C5.5 9.95 6.61667 8.83333 8 8.83333C9.38333 8.83333 10.5 9.95 10.5 11.3333C10.5 12.7167 9.38333 13.8333 8 13.8333ZM8.83333 5.5H3.83333C2.91667 5.5 2.16667 4.75 2.16667 3.83333C2.16667 2.91667 2.91667 2.16667 3.83333 2.16667H8.83333C9.75 2.16667 10.5 2.91667 10.5 3.83333C10.5 4.75 9.75 5.5 8.83333 5.5Z" fill="white"/>
</svg>
