<svg width="16" height="11" viewBox="0 0 16 11" fill="none" xmlns="http://www.w3.org/2000/svg">
<path fillRule="evenodd" clipRule="evenodd" d="M7.99935 0.333328C4.66602 0.333328 1.81935 2.40666 0.666016 5.33333C1.81935 8.25999 4.66602 10.3333 7.99935 10.3333C11.3327 10.3333 14.1793 8.25999 15.3327 5.33333C14.1793 2.40666 11.3327 0.333328 7.99935 0.333328ZM7.99935 8.66666C6.15935 8.66666 4.66602 7.17333 4.66602 5.33333C4.66602 3.49333 6.15935 1.99999 7.99935 1.99999C9.83935 1.99999 11.3327 3.49333 11.3327 5.33333C11.3327 7.17333 9.83935 8.66666 7.99935 8.66666ZM7.99935 3.33333C6.89268 3.33333 5.99935 4.22666 5.99935 5.33333C5.99935 6.43999 6.89268 7.33333 7.99935 7.33333C9.10602 7.33333 9.99935 6.43999 9.99935 5.33333C9.99935 4.22666 9.10602 3.33333 7.99935 3.33333Z" fill="#969696"/>
</svg>
