<svg width="32" height="32" viewBox="0 0 32 32" fill="none" xmlns="http://www.w3.org/2000/svg">
<rect width="32" height="32" rx="3" fill="#61B9F7"/>
<path fillRule="evenodd" clipRule="evenodd" d="M24.3327 10.9367C23.7195 11.2089 23.0605 11.3923 22.3688 11.4749C23.075 11.052 23.6174 10.3819 23.8723 9.58325C23.2119 9.97492 22.4799 10.2596 21.7007 10.4131C21.0778 9.74853 20.1882 9.33325 19.2049 9.33325C16.9973 9.33325 15.375 11.393 15.8737 13.5312C13.0327 13.3888 10.5132 12.0277 8.82643 9.95895C7.9306 11.4958 8.36185 13.5062 9.88407 14.5242C9.32435 14.5062 8.79657 14.3527 8.33615 14.0964C8.29865 15.6805 9.43407 17.1624 11.0785 17.4923C10.5973 17.6228 10.0702 17.6534 9.53407 17.5506C9.96879 18.9089 11.2313 19.8971 12.7285 19.9249C11.291 21.052 9.4799 21.5555 7.66602 21.3416C9.17921 22.3117 10.9771 22.8777 12.9077 22.8777C19.2563 22.8777 22.8431 17.5159 22.6264 12.7069C23.2945 12.2242 23.8743 11.6221 24.3327 10.9367Z" fill="white"/>
</svg>
