<svg width="28" height="28" viewBox="0 0 28 28" fill="none" xmlns="http://www.w3.org/2000/svg">
<rect width="28" height="28" rx="14" fill="#EDEDED"/>
<g clip-path="url(#clip0_396_60697)">
<path fillRule="evenodd" clipRule="evenodd" d="M8.65919 12.7199L7.42919 13.9499C7.26592 14.1125 7.13637 14.3058 7.04797 14.5186C6.95957 14.7314 6.91406 14.9595 6.91406 15.1899C6.91406 15.4204 6.95957 15.6485 7.04797 15.8613C7.13637 16.0741 7.26592 16.2673 7.42919 16.4299L12.5692 21.5599C13.2692 22.2599 14.3692 22.2499 15.0492 21.5599L16.2792 20.3399L21.6292 14.9899C21.9636 14.6165 22.1456 14.1312 22.1392 13.6299L21.8192 9.33994C21.7584 8.79159 21.5121 8.28046 21.1211 7.89126C20.7301 7.50205 20.2178 7.25814 19.6692 7.19994L15.3692 6.86994C14.9392 6.83994 14.3192 7.06994 14.0092 7.37994L13.2192 8.17994L10.9492 10.4599L8.66919 12.7299L8.65919 12.7199ZM18.4892 11.7399C18.8207 11.7399 19.1387 11.6082 19.3731 11.3738C19.6075 11.1394 19.7392 10.8215 19.7392 10.4899C19.7392 10.1584 19.6075 9.84048 19.3731 9.60606C19.1387 9.37164 18.8207 9.23994 18.4892 9.23994C18.1577 9.23994 17.8397 9.37164 17.6053 9.60606C17.3709 9.84048 17.2392 10.1584 17.2392 10.4899C17.2392 10.8215 17.3709 11.1394 17.6053 11.3738C17.8397 11.6082 18.1577 11.7399 18.4892 11.7399Z" fill="black"/>
</g>
<defs>
<clipPath id="clip0_396_60697">
<rect width="21" height="21" fill="white" transform="translate(4 4)"/>
</clipPath>
</defs>
</svg>
