<svg width="16" height="16" viewBox="0 0 16 16" fill="none" xmlns="http://www.w3.org/2000/svg">
<path fillRule="evenodd" clipRule="evenodd" d="M10.8273 5.17331C10.0473 4.39331 9.02732 3.99998 8.00065 3.99998V7.99998L5.17398 10.8266C6.73398 12.3866 9.26732 12.3866 10.834 10.8266C12.394 9.26665 12.394 6.73331 10.8273 5.17331ZM8.00065 1.33331C4.32065 1.33331 1.33398 4.31998 1.33398 7.99998C1.33398 11.68 4.32065 14.6666 8.00065 14.6666C11.6807 14.6666 14.6673 11.68 14.6673 7.99998C14.6673 4.31998 11.6807 1.33331 8.00065 1.33331ZM8.00065 13.3333C5.05398 13.3333 2.66732 10.9466 2.66732 7.99998C2.66732 5.05331 5.05398 2.66665 8.00065 2.66665C10.9473 2.66665 13.334 5.05331 13.334 7.99998C13.334 10.9466 10.9473 13.3333 8.00065 13.3333Z" fill="#585757"/>
</svg>
