<svg width="14" height="14" viewBox="0 0 14 14" fill="none" xmlns="http://www.w3.org/2000/svg">
<path fillRule="evenodd" clipRule="evenodd" d="M9.82732 4.17333C9.04732 3.39333 8.02732 2.99999 7.00065 2.99999V6.99999L4.17398 9.82666C5.73398 11.3867 8.26732 11.3867 9.83398 9.82666C11.394 8.26666 11.394 5.73333 9.82732 4.17333ZM7.00065 0.333328C3.32065 0.333328 0.333984 3.31999 0.333984 7C0.333984 10.68 3.32065 13.6667 7.00065 13.6667C10.6807 13.6667 13.6673 10.68 13.6673 7C13.6673 3.31999 10.6807 0.333328 7.00065 0.333328ZM7.00065 12.3333C4.05398 12.3333 1.66732 9.94666 1.66732 6.99999C1.66732 4.05333 4.05398 1.66666 7.00065 1.66666C9.94732 1.66666 12.334 4.05333 12.334 6.99999C12.334 9.94666 9.94732 12.3333 7.00065 12.3333Z" fill="#969696"/>
</svg>
