<svg width="20" height="12" viewBox="0 0 20 12" fill="none" xmlns="http://www.w3.org/2000/svg">
<path fillRule="evenodd" clipRule="evenodd" d="M14.8505 0.85L16.2905 2.29L11.4105 7.17L8.12047 3.88C7.73047 3.49 7.10047 3.49 6.71047 3.88L0.710469 9.89C0.320469 10.28 0.320469 10.91 0.710469 11.3C1.10047 11.69 1.73047 11.69 2.12047 11.3L7.41047 6L10.7005 9.29C11.0905 9.68 11.7205 9.68 12.1105 9.29L17.7005 3.71L19.1405 5.15C19.4505 5.46 19.9905 5.24 19.9905 4.8V0.5C20.0005 0.22 19.7805 0 19.5005 0H15.2105C14.7605 0 14.5405 0.54 14.8505 0.85Z" fill="#1C1C1C"/>
</svg>
